<?xml version="1.0" encoding="UTF-8" standalone="no"?>
<!-- Created with Inkscape (http://www.inkscape.org/) -->

<svg
   xmlns:dc="http://purl.org/dc/elements/1.1/"
   xmlns:cc="http://creativecommons.org/ns#"
   xmlns:rdf="http://www.w3.org/1999/02/22-rdf-syntax-ns#"
   xmlns:svg="http://www.w3.org/2000/svg"
   xmlns="http://www.w3.org/2000/svg"
   xmlns:sodipodi="http://sodipodi.sourceforge.net/DTD/sodipodi-0.dtd"
   xmlns:inkscape="http://www.inkscape.org/namespaces/inkscape"
   width="120mm"
   height="120mm"
   viewBox="0 0 120 120"
   version="1.1"
   id="svg8"
   inkscape:version="0.92.1 r15371"
   sodipodi:docname="file-default.svg">
  <defs
     id="defs2" />
  <sodipodi:namedview
     id="base"
     pagecolor="#ffffff"
     bordercolor="#666666"
     borderopacity="1.0"
     inkscape:pageopacity="0.0"
     inkscape:pageshadow="2"
     inkscape:zoom="0.98994949"
     inkscape:cx="105.69862"
     inkscape:cy="131.42857"
     inkscape:document-units="mm"
     inkscape:current-layer="layer1"
     showgrid="false"
     inkscape:window-width="1394"
     inkscape:window-height="1042"
     inkscape:window-x="242"
     inkscape:window-y="0"
     inkscape:window-maximized="0" />
  <metadata
     id="metadata5">
    <rdf:RDF>
      <cc:Work
         rdf:about="">
        <dc:format>image/svg+xml</dc:format>
        <dc:type
           rdf:resource="http://purl.org/dc/dcmitype/StillImage" />
        <dc:title />
      </cc:Work>
    </rdf:RDF>
  </metadata>
  <g
     inkscape:label="Calque 1"
     inkscape:groupmode="layer"
     id="layer1"
     transform="translate(0,-177)">
    <path
       style="fill:#000000;stroke-width:0.4204894"
       d="m 33.90504,273.52172 c -0.614396,-0.6144 -1.213727,-1.51318 -1.33186,-1.99733 -0.118121,-0.48413 -0.161604,-16.45916 -0.09655,-35.50009 l 0.118121,-34.61986 1.37322,-1.22686 1.373233,-1.22688 H 54.62037 73.899535 l 5.016274,5.36124 c 2.758957,2.94869 6.285045,6.72559 7.835769,8.39314 l 2.81948,3.03191 v 27.79659 c 0,19.64422 -0.137747,28.06596 -0.469695,28.71505 -0.258343,0.50515 -0.873307,1.24538 -1.36659,1.64496 -0.827814,0.67055 -2.892359,0.72723 -26.804769,0.73586 l -25.907882,0.01 z m 51.377035,-2.75142 c 0.381742,-0.38176 0.504584,-6.93341 0.504584,-26.91133 V 217.45224 H 80.37701 c -4.912611,0 -5.516137,-0.0838 -6.568547,-0.91159 -1.877077,-1.4765 -2.31844,-3.14242 -2.31844,-8.75077 v -5.064 l -17.555432,0.10978 -17.555432,0.10979 -0.107632,33.59301 c -0.07843,24.46876 0.02121,33.7483 0.366855,34.16477 0.655137,0.7894 47.856299,0.85456 48.643705,0.0671 z"
       id="path4530"
       inkscape:connector-curvature="0"
       sodipodi:nodetypes="ccccccccsccsccccccscscsccccccc" />
    <rect
       style="fill:none;fill-opacity:1;stroke:none;stroke-width:0.26458332"
       id="rect4523"
       width="28.063299"
       height="14.432554"
       x="-101.56242"
       y="264.12585" />
  </g>
</svg>
