<?xml version="1.0" encoding="UTF-8" standalone="no"?>
<!-- Created with Inkscape (http://www.inkscape.org/) -->

<svg
   xmlns:dc="http://purl.org/dc/elements/1.1/"
   xmlns:cc="http://creativecommons.org/ns#"
   xmlns:rdf="http://www.w3.org/1999/02/22-rdf-syntax-ns#"
   xmlns:svg="http://www.w3.org/2000/svg"
   xmlns="http://www.w3.org/2000/svg"
   xmlns:sodipodi="http://sodipodi.sourceforge.net/DTD/sodipodi-0.dtd"
   xmlns:inkscape="http://www.inkscape.org/namespaces/inkscape"
   width="120mm"
   height="120mm"
   viewBox="0 0 120 120"
   version="1.1"
   id="svg8"
   inkscape:version="0.92.1 r15371"
   sodipodi:docname="folder-default.svg">
  <defs
     id="defs2" />
  <sodipodi:namedview
     id="base"
     pagecolor="#ffffff"
     bordercolor="#666666"
     borderopacity="1.0"
     inkscape:pageopacity="0.0"
     inkscape:pageshadow="2"
     inkscape:zoom="0.98994949"
     inkscape:cx="-99.999997"
     inkscape:cy="131.42857"
     inkscape:document-units="mm"
     inkscape:current-layer="layer1"
     showgrid="false"
     inkscape:window-width="1920"
     inkscape:window-height="1018"
     inkscape:window-x="1912"
     inkscape:window-y="-8"
     inkscape:window-maximized="1" />
  <metadata
     id="metadata5">
    <rdf:RDF>
      <cc:Work
         rdf:about="">
        <dc:format>image/svg+xml</dc:format>
        <dc:type
           rdf:resource="http://purl.org/dc/dcmitype/StillImage" />
        <dc:title></dc:title>
      </cc:Work>
    </rdf:RDF>
  </metadata>
  <g
     inkscape:label="Calque 1"
     inkscape:groupmode="layer"
     id="layer1"
     transform="translate(0,-177)">
    <g
       id="g4514"
       transform="matrix(0.84422782,0,0,0.84422782,-70.562408,154.18596)">
      <path
         style="fill:#feefd4;stroke-width:0.35277778"
         d="m 104.70051,137.2961 c -0.87251,-0.19623 -2.00826,-0.65719 -2.5239,-1.02435 -0.51564,-0.36717 -1.05042,-0.66758 -1.1884,-0.66758 -0.49273,0 -2.957366,-2.97307 -3.634357,-4.38409 -1.471001,-3.06594 -1.473904,-3.14174 -1.473904,-38.478408 0,-35.336672 0.0029,-35.412469 1.473904,-38.478407 0.676991,-1.411019 3.141627,-4.384092 3.634357,-4.384092 0.13798,0 0.69911,-0.31917 1.24695,-0.709266 1.6742,-1.192134 5.56359,-1.449656 20.18739,-1.336633 l 13.66621,0.105621 5.38793,5.379861 5.38793,5.379861 22.57364,0.01557 c 16.92849,0.01168 22.97064,0.125782 24.16114,0.456283 3.94759,1.095912 6.03807,2.682262 7.9786,6.054537 0.92878,1.614036 1.02503,2.108552 1.13295,5.820833 0.13116,4.511826 0.34093,4.938889 2.42594,4.938889 0.64465,0 1.44774,0.140229 1.78466,0.311619 0.33692,0.17139 1.05651,0.519663 1.59911,0.773941 2.41459,1.131563 3.70807,2.717324 5.61216,6.880345 0.51739,1.131193 -0.0591,8.938097 -0.77947,10.554927 -0.17288,0.388056 -0.38383,1.419931 -0.46878,2.293056 -0.13641,1.402083 -0.55936,3.936183 -1.67806,10.054163 -0.1774,0.97014 -0.41316,2.47827 -0.52392,3.35139 -0.11076,0.87313 -0.33953,1.905 -0.50838,2.29306 -0.16884,0.38805 -0.38533,1.34055 -0.48109,2.11666 -0.19371,1.56999 -1.1138,7.15606 -1.62698,9.87778 -0.18292,0.97014 -0.42796,2.31951 -0.54453,2.99861 -0.47472,2.76548 -2.10465,5.80275 -3.83727,7.15047 -0.79304,0.61687 -1.52126,1.21598 -1.61827,1.33137 -0.097,0.11539 -0.89077,0.51636 -1.76389,0.89106 -1.53951,0.66067 -2.98461,0.68291 -47.80139,0.73548 -30.07414,0.0353 -46.76792,-0.0704 -47.80028,-0.30256 z"
         id="path4528"
         inkscape:connector-curvature="0" />
      <path
         style="fill:#feda98;stroke-width:0.35277778"
         d="m 103.88389,136.79975 c -2.06397,-0.74608 -4.349424,-2.46869 -5.460895,-4.11604 -2.135253,-3.16473 -2.01388,-0.75749 -2.01388,-39.942038 0,-30.39365 0.07837,-36.175136 0.504535,-37.218055 0.857956,-2.099635 2.445493,-4.166012 4.04733,-5.268106 3.07803,-2.117738 3.18683,-2.129474 19.79407,-2.135093 l 15.17372,-0.0051 5.44351,5.452024 5.44351,5.452025 23.65639,0.104225 23.65639,0.104226 1.76389,0.870678 c 0.97014,0.478874 2.47826,1.595153 3.35139,2.480622 2.64734,2.68477 3.52777,5.178263 3.52777,9.991108 v 3.414536 h 1.21813 c 1.13685,0 1.85462,0.20786 4.07354,1.179664 2.86663,1.255476 5.43758,4.73039 5.98406,8.088083 0.34469,2.117831 0.26294,2.764042 -1.75073,13.839196 -0.19402,1.067145 -0.50343,2.773715 -0.68758,3.792355 -0.368,2.03571 -2.04492,11.50546 -2.4832,14.02292 -2.37341,13.63262 -2.58939,14.35723 -5.04576,16.92836 -1.52618,1.59748 -2.14832,1.99164 -4.94103,3.1304 -0.72343,0.29498 -13.38486,0.39138 -47.44861,0.36123 -38.50535,-0.0341 -46.69215,-0.12436 -47.80655,-0.52719 z"
         id="path4526"
         inkscape:connector-curvature="0" />
      <path
         style="fill:#fed265;stroke-width:0.35277778"
         d="m 104.87578,136.92734 c -1.91941,-0.50028 -4.82847,-2.40534 -5.981607,-3.91718 -0.522227,-0.68467 -1.255316,-2.04969 -1.629086,-3.03337 -0.654545,-1.72263 -0.679583,-3.09412 -0.679583,-37.225667 0,-35.36299 0.0016,-35.441379 0.756098,-37.458003 0.842499,-2.251778 3.272588,-4.96246 5.265848,-5.87388 2.62394,-1.199792 4.04815,-1.300023 18.50025,-1.301989 l 14.46802,-0.002 5.62679,5.635045 5.62679,5.635046 23.82602,0.09759 23.82603,0.09759 1.5152,0.80903 c 2.24339,1.197841 4.24162,3.150379 5.28668,5.165805 0.80545,1.553341 0.94469,2.315316 1.06775,5.843221 0.0778,2.231319 0.30314,4.255381 0.50067,4.497916 0.19753,0.242535 0.93502,0.442525 1.63886,0.444419 2.96797,0.008 6.89564,2.858632 8.53887,6.19736 1.04862,2.130612 1.13144,5.517836 0.24515,10.026971 -0.32416,1.649236 -0.92399,4.903611 -1.33295,7.231944 -0.40896,2.328332 -0.89325,5.066772 -1.0762,6.085412 -0.18296,1.01865 -0.48013,2.68552 -0.66039,3.70417 -0.18026,1.01865 -0.58619,3.28083 -0.90206,5.02708 -1.13556,6.27785 -1.27965,7.08314 -1.60969,8.99584 -0.18414,1.06715 -0.48295,2.76619 -0.66403,3.77564 -0.922,5.13993 -4.15108,8.53205 -9.12564,9.58645 -2.52116,0.53437 -90.96917,0.49209 -93.02779,-0.0445 z"
         id="path4524"
         inkscape:connector-curvature="0" />
      <path
         style="fill:#feba49;stroke-width:0.35277778"
         d="m 105.69893,136.93346 c -3.29038,-0.55577 -6.234821,-2.79947 -7.994353,-6.09179 l -0.942684,-1.76389 V 92.741672 56.405561 l 0.93966,-1.763888 c 1.06066,-1.991027 3.022387,-4.001153 4.937917,-5.059739 2.29905,-1.27054 4.8449,-1.46681 18.96986,-1.46247 l 13.60534,0.0042 5.6164,5.552069 5.61639,5.552071 23.84056,0.176388 23.84055,0.176389 1.69041,0.839517 c 2.25318,1.119014 4.49381,3.354888 5.49103,5.479389 0.64392,1.37184 0.8625,2.6211 1.04929,5.997222 l 0.23593,4.264427 1.23473,0.09899 c 0.67909,0.05444 1.59191,0.252879 2.02847,0.440973 2.31118,0.995771 2.84097,1.283991 4.0335,2.194355 0.71471,0.545603 1.75798,1.741082 2.31838,2.656621 1.11618,1.823544 2.08718,5.669294 1.68512,6.67415 -0.13971,0.349204 -0.40406,1.50804 -0.58744,2.575193 -0.18337,1.067153 -0.46207,2.654653 -0.61932,3.527778 -0.15725,0.873125 -0.62986,3.571874 -1.05023,5.997214 -0.73294,4.22861 -0.97565,5.57684 -1.77824,9.87778 -0.42278,2.26563 -0.45797,2.46241 -1.64053,9.17222 -0.49584,2.81341 -0.98021,5.67091 -1.07637,6.35 -0.72016,5.08555 -2.90228,8.44517 -6.66473,10.26115 l -1.76389,0.85135 -45.74352,0.17639 c -25.15894,0.097 -46.43144,0.0602 -47.27223,-0.0818 z"
         id="path4522"
         inkscape:connector-curvature="0" />
      <path
         style="fill:#fec827;stroke-width:0.35277778"
         d="m 105.22856,136.68706 c -2.86493,-0.693 -6.075831,-3.16164 -7.184909,-5.524 -0.265173,-0.56482 -0.62236,-1.3026 -0.79375,-1.63952 C 97.075616,129.18093 96.938282,113.002 96.938282,92.812481 V 56.713998 l 0.883557,-1.831525 c 1.10507,-2.2907 3.036941,-4.246613 5.304941,-5.370962 l 1.749,-0.86706 15.34584,-0.100847 15.34583,-0.100847 5.64031,5.657097 5.64031,5.657096 h 23.55684 c 12.95626,0 23.8325,0.140229 24.16942,0.311619 0.33691,0.17139 1.0826,0.528578 1.65707,0.79375 1.53116,0.706768 4.21066,3.444833 4.95984,5.068242 0.45927,0.995193 0.72519,2.710857 0.90221,5.820833 0.13805,2.425348 0.26774,4.44941 0.2882,4.497917 0.0205,0.04851 0.66283,0.08819 1.42749,0.08819 0.76466,0 1.4884,0.15875 1.60832,0.352778 0.11991,0.194028 0.52956,0.352778 0.91033,0.352778 0.88475,0 3.39411,1.622368 4.63353,2.995708 1.81419,2.010212 3.59373,7.08673 2.81778,8.038351 -0.19338,0.237169 -0.43873,1.224968 -0.5452,2.195107 -0.18327,1.669708 -0.46812,3.357746 -1.25016,7.408333 -0.54106,2.802374 -1.51015,8.688434 -1.68439,10.230564 -0.0877,0.77611 -0.30017,1.72861 -0.47217,2.11666 -0.172,0.38806 -0.39305,1.34056 -0.49122,2.11667 -0.0982,0.77611 -0.3296,2.20486 -0.51431,3.175 -0.76882,4.038 -1.52027,8.58503 -1.70638,10.32526 -0.10932,1.02223 -0.33761,1.94441 -0.50731,2.04929 -0.16971,0.10488 -0.30856,0.5632 -0.30856,1.01849 0,1.87718 -2.74884,5.5825 -5.00889,6.75178 -3.02744,1.56629 -2.30265,1.54433 -49.84806,1.51071 -24.83555,-0.0176 -45.63181,-0.14712 -46.21389,-0.28792 z"
         id="path4520"
         inkscape:connector-curvature="0" />
      <path
         style="fill:#feaa0b;stroke-width:0.35277778"
         d="m 104.71924,136.45264 c -2.83221,-0.7613 -5.444233,-2.91925 -6.578117,-5.43458 -0.30613,-0.6791 -0.702004,-1.51038 -0.87972,-1.8473 -0.430676,-0.81648 -0.430676,-72.041701 0,-72.85818 0.177716,-0.336916 0.574395,-1.191778 0.881509,-1.899694 0.713705,-1.645134 3.921928,-4.586607 5.708028,-5.233429 1.08412,-0.392603 4.5878,-0.525258 16.4452,-0.622641 l 15.06758,-0.123747 5.69774,5.661941 5.69773,5.66194 h 23.24927 c 17.60421,0 23.59528,0.107071 24.67432,0.440972 3.48477,1.078341 6.78006,4.965796 7.20925,8.504735 0.12099,0.997709 0.16997,3.084015 0.10882,4.636237 l -0.11117,2.822222 -38.45278,0.176389 -38.45278,0.176389 -1.68908,0.831699 c -0.92899,0.457432 -2.38281,1.545455 -3.23072,2.417829 -1.69486,1.743777 -2.68927,4.292102 -3.41243,8.744916 -0.22058,1.358195 -0.5222,3.104445 -0.67027,3.880556 -0.14806,0.776111 -0.60595,3.316111 -1.01752,5.644444 -0.41158,2.328332 -0.89312,4.947712 -1.0701,5.820832 -0.17698,0.87313 -0.50456,2.61938 -0.72794,3.88056 -0.22338,1.26118 -0.54088,3.00743 -0.70555,3.88055 -0.16468,0.87313 -0.4675,2.54 -0.67295,3.70417 -0.66018,3.74091 -1.44075,8.06312 -1.79981,9.96597 -0.1922,1.01865 -0.5225,2.7649 -0.73398,3.88056 -0.87449,4.6133 -0.99343,5.2614 -1.19771,6.52638 -0.24315,1.50566 -0.4167,1.5452 -3.33682,0.76028 z"
         id="path4518"
         inkscape:connector-curvature="0" />
      <path
         style="fill:#fe9f00;stroke-width:0.35277778"
         d="m 107.05091,136.7507 c -0.15207,-0.24254 -0.81736,-0.44097 -1.47842,-0.44097 -2.41497,0 -5.06559,-1.87851 -7.083438,-5.02008 -0.464868,-0.72375 -0.845214,-1.55718 -0.845214,-1.85208 0,-0.2949 -0.15875,-0.53618 -0.352778,-0.53618 -0.232891,0 -0.352778,-12.28842 -0.352778,-36.159718 0,-23.871297 0.119887,-36.159722 0.352778,-36.159722 0.194028,0 0.352778,-0.241279 0.352778,-0.536177 0,-1.395662 3.567952,-5.63338 5.057882,-6.007327 0.5203,-0.130589 1.03325,-0.378598 1.13988,-0.551131 0.10663,-0.172534 0.81014,-0.313698 1.56335,-0.313698 0.75321,0 1.46758,-0.15875 1.5875,-0.352778 0.13941,-0.225575 5.25496,-0.352777 14.1872,-0.352777 h 13.96918 l 4.02604,3.96875 c 2.21432,2.182812 4.75575,4.722812 5.64762,5.644444 l 1.62157,1.675694 h 22.4605 c 21.19817,0 26.09078,0.187921 26.81151,1.029807 0.097,0.113322 0.60699,0.427859 1.13328,0.69897 1.55775,0.80246 3.01893,2.441395 3.97118,4.454267 0.78717,1.663961 0.89276,2.34744 0.89276,5.779019 v 3.891869 l -38.1882,0.09873 -38.18819,0.09873 -2.0591,1.042377 c -2.22951,1.128642 -5.52563,4.40448 -5.52563,5.491621 0,0.360969 -0.14121,0.743578 -0.3138,0.850244 -0.17259,0.106669 -0.4041,0.711348 -0.51447,1.343737 -0.11037,0.63239 -0.34979,1.943548 -0.53204,2.913687 -1.36359,7.258452 -2.07975,11.397555 -2.38051,13.758332 -0.0989,0.77611 -0.31735,1.72861 -0.48548,2.11666 -0.16814,0.38806 -0.38534,1.34056 -0.48267,2.11667 -0.0973,0.77611 -0.44044,2.83986 -0.76247,4.58611 -0.32203,1.74625 -0.73816,4.04813 -0.92474,5.11528 -0.37366,2.13724 -0.80951,4.53423 -1.31501,7.23194 -0.18178,0.97014 -0.76005,4.14514 -1.28504,7.05556 -1.43711,7.96694 -1.39984,7.8069 -1.70503,7.32014 z"
         id="path4516"
         inkscape:connector-curvature="0" />
    </g>
  </g>
</svg>
